<svg version="1.1" id="Layer_1" xmlns="http://www.w3.org/2000/svg" xmlns:xlink="http://www.w3.org/1999/xlink" x="0px" y="0px"
	 width="100%" viewBox="0 0 1024 576" enable-background="new 0 0 1024 576" xml:space="preserve">
<path fill="#000000" opacity="1.000000" stroke="none" 
	d="
M296.757202,462.698151 
	C294.658813,465.508728 293.277679,469.808838 289.056610,466.184540 
	C282.463409,460.523499 279.493011,458.330475 283.344635,453.050415 
	C286.278320,449.028687 289.266083,444.976074 292.730530,441.425812 
	C301.176544,432.770691 308.972015,423.416504 318.621887,416.012360 
	C324.670319,411.371552 329.933563,405.732666 336.736542,402.031921 
	C339.328705,400.621826 341.180054,400.731903 343.421021,402.730408 
	C352.815277,411.108093 352.913452,411.096405 346.483215,421.962738 
	C339.526581,433.718567 333.467316,445.884125 329.171478,458.881866 
	C328.650269,460.458862 327.895477,462.013611 327.703461,463.632629 
	C327.339600,466.700348 328.660095,468.225311 331.797821,466.818787 
	C333.127625,466.222717 334.285492,465.170837 335.407898,464.195465 
	C345.878174,455.096497 354.959503,444.707855 363.509094,433.828705 
	C366.965302,429.430664 368.326569,429.328552 372.183258,433.222473 
	C373.236908,434.286316 374.221558,435.419189 375.224274,436.532654 
	C379.427490,441.200073 378.925842,441.298370 374.796661,446.221161 
	C362.230988,461.201904 347.719604,474.100372 332.903259,486.715515 
	C329.341248,489.748352 325.362457,492.152863 321.431732,494.660797 
	C318.506592,496.527222 316.738831,495.319153 314.428558,493.521667 
	C306.725952,487.528625 306.932922,479.951111 309.186737,471.576477 
	C311.520172,462.905914 313.799896,454.230743 316.788452,445.756104 
	C317.431030,443.933960 318.370331,442.065125 316.679749,439.644836 
	C307.921539,445.525146 302.834839,454.316498 296.757202,462.698151 
z"/>
<path fill="#000000" opacity="1.000000" stroke="none" 
	d="
M716.353149,119.022095 
	C718.488220,123.310562 715.371155,125.670570 713.426208,128.095459 
	C700.079468,144.735580 684.472168,159.095581 667.949951,172.496658 
	C666.415283,173.741425 664.569702,174.595718 662.916687,175.703186 
	C659.415710,178.048538 656.385254,177.609344 653.750000,174.309967 
	C653.337769,173.793839 652.790527,173.387558 652.324341,172.912186 
	C646.210510,166.677429 646.270203,166.710678 650.553528,159.317047 
	C657.718750,146.948898 664.760620,134.513687 669.081543,120.773926 
	C669.480652,119.504768 670.041748,118.278900 670.349060,116.990349 
	C670.806152,115.074059 671.614258,112.893730 669.315308,111.632538 
	C667.350342,110.554573 665.872681,111.963303 664.461243,113.177437 
	C653.827209,122.324966 644.422729,132.626083 635.866638,143.715561 
	C631.411621,149.489746 630.566040,149.567017 625.685913,144.318848 
	C624.665588,143.221573 623.677368,142.090637 622.605591,141.045776 
	C619.566101,138.082703 619.950745,135.947189 623.106995,132.834213 
	C631.264160,124.788910 638.318054,115.644958 647.003235,108.100624 
	C656.530518,99.824799 665.632202,91.033066 676.425720,84.284676 
	C680.009949,82.043747 682.164062,83.105331 685.102051,85.598633 
	C692.286438,91.695557 691.532166,98.867287 689.428772,106.802864 
	C686.959229,116.120010 684.789307,125.506477 681.248474,134.504303 
	C680.784790,135.682449 680.023132,136.971146 681.208130,138.320801 
	C683.602905,139.213730 684.759277,137.264114 686.147339,135.965881 
	C692.771423,129.770691 697.616943,122.173935 702.720459,114.785156 
	C705.857788,110.243042 707.238647,110.018250 711.267944,113.709686 
	C712.981750,115.279785 714.530823,117.029678 716.353149,119.022095 
z"/>
<path fill="#000000" opacity="1.000000" stroke="none" 
	d="
M484.056427,97.293953 
	C478.431793,97.732620 476.971680,95.290001 476.549591,90.226639 
	C474.741119,68.533028 475.952148,47.070824 479.620972,25.644377 
	C481.644501,13.826744 481.625946,13.558324 496.721771,13.724200 
	C501.883301,13.780917 503.139404,15.372596 500.651367,19.626694 
	C497.196289,25.534296 495.742798,31.916821 494.831879,38.547348 
	C494.168610,43.375252 495.786407,45.234211 500.444641,44.644882 
	C505.389618,44.019264 510.321747,43.293003 515.264221,42.646618 
	C518.738953,42.192169 520.306763,40.321747 519.631714,36.821110 
	C518.587891,31.408625 517.368591,26.030561 513.900452,21.549576 
	C512.740234,20.050554 511.576538,18.782558 512.461060,16.673386 
	C513.524658,14.137276 515.660278,14.756598 517.579834,14.739838 
	C520.742981,14.712220 523.922668,14.958005 527.066162,14.713426 
	C530.917969,14.413741 532.372681,16.341106 533.031189,19.783430 
	C537.593384,43.632050 538.701172,67.573883 535.163940,91.654465 
	C534.249634,97.879272 533.312561,98.608498 527.109558,98.407852 
	C524.289307,98.316628 521.466919,98.188980 518.646912,98.217209 
	C514.011230,98.263626 512.436157,96.154045 514.598328,92.061829 
	C518.989746,83.750504 520.518860,74.861481 520.609253,65.610352 
	C520.664429,59.968571 518.099854,57.190025 512.445435,57.429680 
	C506.118134,57.697861 500.543457,60.326363 495.406311,63.890827 
	C493.765991,65.028961 493.300690,66.808212 493.222107,68.713692 
	C492.912384,76.224045 493.113007,83.668442 495.455109,90.927605 
	C497.145111,96.165565 496.000885,97.569618 490.500031,97.413170 
	C488.504425,97.356407 486.507996,97.329376 484.056427,97.293953 
z"/>
<path fill="#000000" opacity="1.000000" stroke="none" 
	d="
M238.260635,237.099579 
	C236.746918,237.891098 235.644119,238.778458 234.393951,239.109802 
	C231.406662,239.901550 229.368378,238.894180 229.529785,235.489822 
	C229.615341,233.685150 230.260757,231.912903 230.574097,230.112198 
	C232.524811,218.901978 232.521805,219.039215 244.044327,218.670303 
	C265.991730,217.967621 287.525085,220.363892 308.584351,226.708328 
	C314.703461,228.551804 315.250458,229.416595 313.999512,235.564148 
	C313.405884,238.481461 312.066803,241.236160 312.297272,244.343246 
	C312.401794,245.752579 312.827301,247.551544 311.049438,248.301514 
	C309.388733,249.002014 307.748596,248.458588 306.397156,247.333817 
	C299.346832,241.466064 290.846222,239.228302 282.100800,237.691833 
	C274.609192,236.375641 271.382660,239.124786 271.368103,246.644653 
	C271.358215,251.745544 272.805176,256.517090 275.162415,260.967926 
	C278.351807,266.989929 284.585297,265.750336 289.781433,266.489563 
	C293.679382,267.044067 297.701355,266.601593 301.687500,265.874939 
	C307.796539,264.761322 308.962372,266.145721 307.846222,272.124542 
	C307.357361,274.743073 306.754669,277.355316 306.499786,279.998932 
	C306.157471,283.549225 304.352539,284.934143 300.874817,284.703278 
	C276.531342,283.087280 252.724976,278.813995 229.702164,270.551453 
	C225.445374,269.023743 223.235077,266.540924 225.018661,261.845032 
	C225.926743,259.454285 225.971191,256.974854 225.939682,254.460800 
	C225.917313,252.673630 225.594971,250.571854 227.781647,249.735489 
	C229.686081,249.007065 231.332352,249.943100 232.837234,251.118210 
	C237.777237,254.975800 243.483444,257.265869 249.458191,258.830963 
	C254.909607,260.258972 256.497711,258.819366 257.369995,253.177475 
	C258.097595,248.471252 257.448181,243.895447 256.968628,239.264053 
	C256.603271,235.735214 254.531891,234.348877 251.249863,234.368286 
	C246.871902,234.394180 242.714340,235.565964 238.260635,237.099579 
z"/>
<path fill="#000000" opacity="1.000000" stroke="none" 
	d="
M758.325562,321.649353 
	C754.207336,320.216309 750.466553,318.813416 746.639160,317.711334 
	C743.424194,316.785645 741.673706,318.224518 741.066589,321.555450 
	C740.004028,327.384277 741.037170,333.148712 741.318176,338.932678 
	C741.462341,341.898468 743.618713,342.706146 746.209656,342.760895 
	C751.799072,342.878967 757.179749,341.930450 762.058533,339.123566 
	C764.116333,337.939667 765.977661,337.255951 768.032532,338.811035 
	C769.967651,340.275482 768.905212,342.091797 768.536255,343.832153 
	C768.122742,345.782715 767.663574,347.733429 767.417969,349.708160 
	C766.371704,358.121582 766.387268,357.922150 757.841187,358.370392 
	C734.589050,359.590057 711.789978,357.232788 689.399414,350.691559 
	C684.762085,349.336792 682.828613,347.298767 684.463806,342.490906 
	C685.485535,339.486786 685.587402,336.302368 685.826599,333.143524 
	C686.144348,328.947052 688.618103,327.553894 691.701843,330.119324 
	C698.256409,335.572174 706.179565,337.472717 714.101257,339.320526 
	C723.241821,341.452606 727.273560,337.751801 726.778625,328.405731 
	C726.534180,323.789917 724.961182,319.605560 723.003357,315.570587 
	C721.201660,311.857239 717.280273,311.665985 713.917664,311.489777 
	C707.631287,311.160278 701.309387,310.657990 695.013794,311.898529 
	C691.088074,312.672119 689.507690,310.843964 690.191528,306.803741 
	C690.745178,303.532990 691.311707,300.264191 691.831970,296.988129 
	C692.294128,294.078064 693.728577,292.643585 696.900146,292.831573 
	C721.389954,294.283081 745.355042,298.348755 768.489075,306.768768 
	C772.645508,308.281616 775.193237,310.380035 773.267883,315.278534 
	C772.220764,317.942841 772.305847,320.815002 772.212524,323.654755 
	C772.060242,328.289886 770.083435,329.291443 766.213074,326.619659 
	C763.750671,324.919861 761.496704,322.922852 758.325562,321.649353 
z"/>
<path fill="#000000" opacity="1.000000" stroke="none" 
	d="
M494.356049,533.392822 
	C490.479126,534.060425 487.067474,534.903137 483.604797,535.298279 
	C479.533691,535.762939 478.606171,538.098938 479.382721,541.568359 
	C480.616333,547.079956 481.535339,552.745422 485.710419,557.066711 
	C487.031708,558.434326 487.183258,559.916748 486.344818,561.635681 
	C485.512512,563.341980 484.042450,563.325928 482.526794,563.307800 
	C481.193817,563.291809 479.861420,563.222778 478.528473,563.210632 
	C465.314728,563.089783 467.609039,564.921509 465.077942,552.212769 
	C460.683472,530.148193 460.556000,507.920227 463.833954,485.651947 
	C464.529388,480.927887 466.693176,479.008392 471.524445,479.698914 
	C474.463989,480.119019 477.504181,479.896515 480.497986,479.861237 
	C485.092072,479.807159 486.605530,482.030823 484.271179,486.088959 
	C479.530426,494.330536 478.411774,503.328461 478.379059,512.552673 
	C478.356781,518.826904 481.319122,521.350525 487.511749,520.600403 
	C493.078186,519.926208 498.023102,517.523743 502.790680,514.733582 
	C504.844025,513.531799 505.624359,511.626801 505.698822,509.277344 
	C505.937042,501.762054 505.782654,494.320099 503.477173,487.037018 
	C501.808380,481.765320 502.892181,480.536407 508.534363,480.624084 
	C509.034241,480.631836 509.534058,480.646240 510.033844,480.659912 
	C522.306152,480.995758 521.615540,481.047150 522.550476,493.618286 
	C523.668152,508.645752 522.886841,523.506775 521.226013,538.375549 
	C520.453552,545.291626 519.211121,552.167358 517.891663,559.005371 
	C517.187012,562.656982 515.011841,564.802429 510.778778,564.330872 
	C507.823334,564.001648 504.799103,564.279968 501.805725,564.303833 
	C497.097656,564.341309 495.877380,562.629456 498.282898,558.485291 
	C501.538940,552.875916 503.039398,546.860962 503.924927,540.532837 
	C504.826141,534.092468 503.834808,532.821472 497.291473,533.179626 
	C496.459564,533.225159 495.629608,533.305603 494.356049,533.392822 
z"/>
<path fill="#000000" opacity="1.000000" stroke="none" 
	d="
M593.861328,476.576294 
	C593.985046,472.512482 592.484131,468.977112 593.117432,465.279816 
	C596.658691,444.606598 622.116699,430.816620 641.217957,439.485809 
	C649.125854,443.074860 653.935181,450.064667 658.080261,457.323669 
	C664.440063,468.461029 668.321899,480.425934 668.177124,493.385406 
	C668.111267,499.283020 666.443176,504.834564 662.920471,509.738098 
	C656.244507,519.030640 646.565369,520.253296 636.983582,517.375732 
	C616.211182,511.137238 601.524597,497.673798 593.861328,476.576294 
M647.196106,499.763214 
	C651.852844,495.994019 652.948608,490.740326 651.991150,485.386566 
	C650.149902,475.091217 644.753113,466.469147 637.276428,459.328094 
	C631.788574,454.086609 624.233582,454.049622 618.541626,458.519836 
	C612.714355,463.096283 610.307007,471.567261 613.371826,477.244202 
	C617.379517,484.667725 622.725281,491.144714 629.524597,496.011536 
	C634.404175,499.504242 639.820435,503.215088 647.196106,499.763214 
z"/>
<path fill="#000000" opacity="1.000000" stroke="none" 
	d="
M404.567902,99.762863 
	C409.639954,121.355377 397.301514,133.290558 377.161011,140.037354 
	C366.154907,143.724243 356.166718,139.805038 348.475189,130.961685 
	C336.513977,117.209366 330.584961,101.142136 330.789764,82.949028 
	C330.919220,71.445572 340.323669,59.643486 351.361603,59.116543 
	C358.125214,58.793655 363.883545,60.141136 369.536652,62.879471 
	C385.656097,70.687630 398.170441,82.082863 404.567902,99.762863 
M346.467682,90.461838 
	C348.260651,100.943443 353.175781,109.890976 360.495636,117.405067 
	C366.157013,123.216713 373.250549,123.750435 379.364105,119.552155 
	C385.746185,115.169487 388.885803,107.225250 385.947205,101.401604 
	C381.700531,92.985657 375.704102,85.836281 367.838165,80.581886 
	C355.692535,72.468712 349.143341,75.363846 346.467682,90.461838 
z"/>
<path fill="#000000" opacity="1.000000" stroke="none" 
	d="
M424.394653,54.688889 
	C430.784454,55.259384 436.753082,55.471146 442.741577,55.660336 
	C453.763550,56.008541 462.668976,63.400711 465.791321,73.936401 
	C468.457825,82.933914 464.367889,95.145996 456.455505,101.142570 
	C445.648102,109.333221 433.867188,111.256035 421.307892,105.712952 
	C414.675018,102.785515 411.535065,96.850250 409.864227,90.203766 
	C409.017944,86.837379 412.069519,85.208412 414.298065,83.599579 
	C416.511841,82.001404 418.395508,83.314766 419.948669,85.050369 
	C426.519501,92.393112 434.595978,92.138718 442.886108,89.179443 
	C446.766937,87.794121 449.894409,84.963387 449.345642,80.186760 
	C448.815796,75.574081 445.001923,72.555145 439.840332,72.266861 
	C432.371094,71.849693 424.912109,71.343857 417.603577,69.613480 
	C408.556244,67.471405 401.932037,59.961823 400.826935,50.659801 
	C399.587463,40.226994 404.015442,31.983271 412.622833,27.337311 
	C420.338287,23.172754 428.149445,21.014778 436.996033,22.635067 
	C444.552185,24.019014 449.162231,32.557636 445.558929,39.427418 
	C443.489380,43.372925 440.529663,42.743916 437.665802,40.572224 
	C432.091644,36.345352 426.499329,36.998844 420.925415,40.305710 
	C417.746704,42.191589 415.372925,44.925114 416.263641,48.912010 
	C417.132019,52.798973 419.998138,54.625256 424.394653,54.688889 
z"/>
<path fill="#000000" opacity="1.000000" stroke="none" 
	d="
M537.715698,480.815887 
	C545.886414,471.599670 556.325867,469.026093 567.671936,469.079193 
	C577.291443,469.124176 586.776794,477.135773 588.938660,486.678497 
	C589.704285,490.058258 587.763733,492.036652 585.232178,493.604828 
	C582.771118,495.129364 580.531921,494.804504 578.553650,492.566376 
	C571.955444,485.101318 563.224365,485.512604 555.249695,488.976013 
	C551.456604,490.623383 548.858948,493.589172 549.740051,497.981873 
	C550.639648,502.466675 553.552368,505.304535 558.382019,505.636597 
	C564.023621,506.024536 569.673035,506.310150 575.310059,506.754120 
	C588.151489,507.765533 596.893616,515.577515 598.301575,528.308167 
	C599.338928,537.687378 594.669922,546.250000 586.310547,550.470520 
	C578.953491,554.184937 571.479065,555.971619 563.266357,555.272949 
	C555.240906,554.590149 549.929688,546.399841 552.985413,539.015808 
	C554.437256,535.507385 557.277344,534.645264 561.143005,537.229675 
	C567.261108,541.320007 573.048340,540.749939 578.748901,536.725098 
	C581.629639,534.691162 583.682129,531.760925 582.556396,528.185303 
	C581.467529,524.727051 578.553772,523.279724 574.751709,523.198425 
	C568.268433,523.059814 561.746216,522.900452 555.323608,522.089966 
	C531.089294,519.031616 527.902039,494.725983 537.715698,480.815887 
z"/>
<path fill="#000000" opacity="1.000000" stroke="none" 
	d="
M259.923706,380.934326 
	C255.732010,396.507843 270.469147,404.950897 281.856476,402.187195 
	C289.882050,400.239471 296.941986,397.023621 302.522766,390.906067 
	C307.436920,385.519196 309.237244,379.405029 305.762756,372.596069 
	C303.588348,368.334930 303.170227,362.833344 297.510864,360.848083 
	C295.313141,360.077118 292.785583,360.662109 290.599884,358.852997 
	C290.452362,354.555542 292.658234,352.051270 296.829285,350.788391 
	C307.924988,347.428925 318.863403,353.027161 325.063721,364.666168 
	C333.413940,380.340851 325.586487,398.256439 312.848145,407.187897 
	C303.200073,413.952515 292.330719,417.388489 280.852600,419.025726 
	C261.682281,421.760162 242.349716,405.062714 242.660736,386.335663 
	C242.762268,380.222198 245.738281,375.935577 250.693344,372.827393 
	C253.708618,370.935944 256.800262,371.308960 259.589752,373.337219 
	C262.503937,375.456146 261.016479,378.060944 259.923706,380.934326 
z"/>
<path fill="#000000" opacity="1.000000" stroke="none" 
	d="
M754.957153,197.529709 
	C752.956787,201.074814 751.029419,204.111908 747.662292,206.039307 
	C744.370911,207.923386 741.533630,206.940765 738.820557,205.075348 
	C735.961731,203.109726 737.570251,200.740662 738.421997,198.405685 
	C742.299683,187.776184 735.218445,176.923309 723.843994,176.276123 
	C712.057739,175.605499 702.403687,180.231110 694.759338,189.008743 
	C690.100098,194.358704 689.824585,202.548218 694.098083,208.406876 
	C695.516113,210.350876 694.433289,212.740067 695.973755,214.430099 
	C697.905762,216.549637 700.042480,218.324493 703.028687,218.760681 
	C704.761230,219.013748 707.017700,218.694000 707.177063,221.314178 
	C707.306274,223.439926 706.407898,225.380859 704.489563,226.330017 
	C699.935059,228.583511 695.172791,229.957626 690.084534,228.137909 
	C671.347290,221.436905 664.049927,198.664108 675.404419,182.084244 
	C683.057251,170.909576 694.277588,165.195786 706.981995,161.731415 
	C717.060913,158.982986 727.009277,158.584000 736.735596,162.882690 
	C749.674133,168.601028 758.192322,184.633728 754.957153,197.529709 
z"/>
<path fill="#000000" opacity="1.000000" stroke="none" 
	d="
M720.902100,453.842285 
	C714.904358,460.539490 709.516907,467.362885 702.281555,472.284271 
	C697.626526,475.450592 695.453796,475.057526 692.170532,470.751221 
	C684.377991,460.530365 684.378052,460.530334 696.211487,455.966522 
	C702.387939,453.584412 702.975952,451.532227 698.482666,446.884857 
	C685.715210,433.679413 670.738831,423.660553 653.866089,416.472412 
	C646.127502,413.175598 645.625122,412.107086 650.394104,405.467865 
	C656.829346,396.508636 656.733643,394.312958 668.034180,401.140137 
	C674.458618,405.021454 680.319458,409.571503 686.195312,414.206573 
	C693.368835,419.865295 700.052185,425.940521 706.085144,432.788879 
	C707.620483,434.531647 709.774597,436.019775 712.238342,435.505463 
	C715.276489,434.871338 714.788452,431.797424 715.091797,429.713806 
	C715.638855,425.955750 715.516113,422.103363 715.747314,418.294830 
	C715.859802,416.442322 716.154968,414.511261 718.151306,413.724121 
	C720.368286,412.850037 721.457336,414.661682 722.653992,416.003906 
	C724.971619,418.603302 727.021362,421.496185 729.604675,423.791901 
	C734.183350,427.860748 733.167480,432.369446 730.890442,436.794647 
	C727.933472,442.541382 725.362427,448.548035 720.902100,453.842285 
z"/>
<path fill="#000000" opacity="1.000000" stroke="none" 
	d="
M326.962677,174.105713 
	C314.555634,165.411804 302.844879,156.470016 293.179230,145.121994 
	C291.455017,143.097641 289.134979,140.970245 286.369873,141.726761 
	C283.525024,142.505096 283.861023,145.822464 283.498962,148.126236 
	C282.882751,152.047226 282.835022,156.058105 282.561279,160.032104 
	C282.452820,161.606857 282.069275,163.013855 280.429321,163.671173 
	C278.613800,164.398880 277.809937,163.113525 276.741058,161.984009 
	C262.332153,146.757797 263.693359,148.952927 273.020386,131.092270 
	C278.549805,120.503815 286.982697,112.119690 296.708160,105.188423 
	C301.286621,101.925392 303.847748,102.609833 307.072296,107.309631 
	C313.629181,116.866379 313.629181,116.866371 302.920898,121.179146 
	C296.905121,123.602013 296.214630,126.245483 300.599640,130.868393 
	C313.033936,143.977417 327.726715,153.864075 344.310150,160.920700 
	C352.372559,164.351440 352.883362,165.650406 347.784729,172.707794 
	C346.420502,174.596146 344.943634,176.405197 343.476166,178.216324 
	C341.480896,180.678864 338.849579,180.917023 336.270020,179.625748 
	C333.160034,178.068970 330.259247,176.094269 326.962677,174.105713 
z"/>
<path fill="#000000" opacity="1.000000" stroke="none" 
	d="
M379.971680,458.952454 
	C381.618286,455.768555 382.234680,452.670898 382.981354,449.592255 
	C383.955414,445.576385 386.384735,444.518311 390.020020,446.328125 
	C390.911407,446.771942 391.746002,447.333649 392.591217,447.865753 
	C403.274170,454.591553 403.289581,455.292053 397.434052,466.639191 
	C387.917755,485.080322 375.920013,501.794556 362.733734,517.720764 
	C357.992737,523.446899 356.351166,523.726685 350.205109,519.902405 
	C340.493713,513.859680 340.653687,514.013855 348.801819,505.560883 
	C361.869354,492.004456 371.565338,476.122620 379.971680,458.952454 
z"/>
<path fill="#000000" opacity="1.000000" stroke="none" 
	d="
M673.858765,366.966339 
	C677.809204,358.561188 676.527527,358.090973 686.126343,360.713928 
	C708.609741,366.857788 729.173096,377.263855 748.833374,389.579865 
	C752.067444,391.605835 753.215210,394.176178 751.398438,398.011536 
	C746.344238,408.681183 748.406189,412.381744 735.298462,403.110504 
	C717.470276,390.500519 697.422058,381.689789 675.468201,378.271179 
	C671.866699,377.710358 670.495300,375.821747 671.592957,372.361938 
	C672.142578,370.629547 672.997498,368.994019 673.858765,366.966339 
z"/>
<path fill="#000000" opacity="1.000000" stroke="none" 
	d="
M275.793579,182.141830 
	C291.101776,189.456985 305.862701,197.187973 322.760437,199.033905 
	C327.168274,199.515427 328.268951,201.780396 326.539062,206.017609 
	C325.973724,207.402344 325.339325,208.758881 324.737091,210.128540 
	C320.687866,219.337662 320.722015,219.222794 311.257996,216.415176 
	C290.081238,210.132812 270.475708,200.478882 251.738373,188.941620 
	C245.485291,185.091400 245.173187,183.889481 248.111694,177.286072 
	C252.731293,166.904938 252.646530,167.024048 261.895325,173.603897 
	C266.215424,176.677322 270.935791,179.188065 275.793579,182.141830 
z"/>
<path fill="#000000" opacity="1.000000" stroke="none" 
	d="
M598.028320,120.033958 
	C607.544678,96.760010 622.245605,77.295570 638.056824,58.577087 
	C640.613831,55.549858 643.644409,55.096188 647.324463,57.504917 
	C658.231384,64.643883 657.902649,64.165565 649.284424,73.685257 
	C634.563904,89.945366 622.183228,107.811699 615.352844,128.976105 
	C614.141174,132.730377 612.005615,133.863159 608.626404,131.880737 
	C605.474731,130.031784 602.480042,127.911201 599.451233,125.858490 
	C597.438782,124.494545 596.432556,122.775200 598.028320,120.033958 
z"/>
<path fill="#000000" opacity="1.000000" stroke="none" 
	d="
M419.837891,535.856323 
	C427.328766,519.367310 431.618835,502.335419 434.485535,484.918671 
	C434.965027,482.005676 434.551331,478.948547 434.583313,475.958344 
	C434.622742,472.272858 435.903351,470.516815 440.128967,471.295990 
	C454.502441,473.946381 455.293518,475.047821 452.675720,489.414886 
	C449.084900,509.122101 442.936920,528.024780 435.067230,546.398071 
	C431.573425,554.554932 421.682800,556.423584 414.933289,550.295410 
	C413.186157,548.709167 413.687073,547.046997 414.610504,545.352966 
	C416.280121,542.289917 417.989685,539.248596 419.837891,535.856323 
z"/>
<path fill="#000000" opacity="1.000000" stroke="none" 
	d="
M565.348633,87.236740 
	C564.377563,92.424797 564.101807,97.206230 564.249451,102.057701 
	C564.382751,106.438095 562.641541,107.663513 558.342590,106.745605 
	C543.913757,103.664787 543.510864,103.012123 546.162537,88.658653 
	C549.895996,68.449104 556.280518,49.089222 564.686218,30.370274 
	C567.848877,23.327253 568.823303,22.901833 576.102295,25.118057 
	C586.713196,28.348759 586.470276,28.222107 581.303406,38.132130 
	C573.319580,53.444969 568.785950,69.954376 565.348633,87.236740 
z"/>
<path fill="#000000" opacity="1.000000" stroke="none" 
	d="
M290.793518,329.414612 
	C293.282593,322.391541 297.960541,318.983917 303.281464,319.939636 
	C308.825439,320.935425 313.100861,325.821228 313.305420,331.394806 
	C313.509888,336.964569 309.958618,341.604431 304.391876,343.040802 
	C296.828247,344.992493 290.733337,339.093811 290.793518,329.414612 
z"/>
<path fill="#000000" opacity="1.000000" stroke="none" 
	d="
M706.880981,251.540070 
	C702.880371,257.945770 697.852356,260.029419 692.554260,257.761658 
	C687.130127,255.439911 684.210999,249.960297 685.452759,244.430725 
	C686.994202,237.565979 692.097778,234.392532 699.346436,235.791397 
	C704.439880,236.774353 708.468811,242.694443 707.794922,248.291718 
	C707.676758,249.273254 707.300232,250.223679 706.880981,251.540070 
z"/>
</svg>